<svg width="20" height="20" viewBox="0 0 20 20" fill="none" xmlns="http://www.w3.org/2000/svg">
<path fill-rule="evenodd" clip-rule="evenodd" d="M0.245605 19.6847C1.23762 19.9839 3.0405 19.8364 4.129 19.7899C4.25817 8.01114 1.90204 2.576 15.7903 4.28816L15.8284 18.2097C17.9815 17.346 19.6318 13.9255 19.712 11.1614C19.8151 7.60895 19.6944 3.93233 19.7164 0.361995C14.5425 0.298203 6.80668 -0.913702 2.8546 2.95054C1.04553 4.7193 0.248629 6.57431 0.252085 9.90661C0.255541 13.1525 0.304933 16.4438 0.245749 19.6845L0.245605 19.6847Z" fill="#080817"/>
<path fill-rule="evenodd" clip-rule="evenodd" d="M7.1846 16.7254C7.44884 16.6284 7.56965 15.9476 9.20578 15.945C9.88532 15.9437 11.3965 16.0197 11.9426 15.8617C13.5818 15.3878 13.9489 13.3671 12.8625 12.3235C12.2341 11.7194 11.7488 11.702 10.6515 11.702C9.68833 11.702 8.87948 11.5843 8.15861 12.0431C7.64641 12.369 7.18128 12.9964 7.18229 13.8773C7.18316 14.822 7.16674 15.7824 7.18474 16.7254H7.1846ZM9.47002 14.3499C9.49983 14.3854 9.8234 14.704 9.8725 14.7532C9.90793 14.7886 9.89626 14.7819 9.95631 14.7606C10.2782 14.6462 10.4885 14.5348 10.7606 14.3492C11.0627 14.1429 11.3449 13.8161 11.5141 13.488C11.5557 13.4072 11.6548 13.1902 11.6701 13.1056C11.6613 13.1004 11.567 13.0796 11.4807 13.0333C11.4266 13.0039 11.3358 12.9344 11.2993 12.8874C11.2896 12.8749 11.2808 12.8652 11.2703 12.8515C11.2522 12.8284 11.2333 12.8012 11.2172 12.7718C11.1818 12.708 11.1658 12.6564 11.1443 12.5784C11.084 12.5872 10.8992 12.6687 10.8376 12.6965C10.6958 12.7604 10.5556 12.8504 10.4334 12.9397L10.3136 13.0357C10.2967 13.0513 10.2714 13.0694 10.2557 13.0858C10.236 13.1066 10.2187 13.1185 10.1995 13.1375C10.1906 13.1463 10.1827 13.1563 10.1735 13.1655C10.1644 13.1745 10.155 13.182 10.1455 13.1914L10.0434 13.305C9.9278 13.4376 9.8198 13.5953 9.7334 13.7503C9.65046 13.899 9.5894 14.0309 9.52604 14.1903C9.51049 14.2301 9.47693 14.3113 9.46973 14.3499H9.47002ZM10.7028 13.2585C10.5706 13.2761 10.4589 13.3924 10.4764 13.5443C10.4918 13.6768 10.6119 13.7904 10.7631 13.7724C10.8959 13.7567 11.0091 13.6369 10.9907 13.4839C10.975 13.3537 10.8531 13.2382 10.7028 13.2585ZM8.63281 14.3242L8.7745 14.237C8.91548 14.1559 9.12831 14.0665 9.29751 14.0665C9.38837 14.0665 9.39428 14.0691 9.48442 14.0901C9.49263 14.081 9.55052 13.9449 9.56189 13.92C9.58825 13.8626 9.61777 13.8087 9.64542 13.7556C9.67854 13.6919 9.74362 13.5861 9.78481 13.5243C9.7946 13.5099 9.83247 13.4605 9.83175 13.4492C9.64311 13.4388 9.50645 13.4535 9.3266 13.5337C9.233 13.5753 9.13796 13.6356 9.06207 13.701C9.01354 13.7429 8.99871 13.7636 8.9666 13.7926C8.94442 13.8125 8.92815 13.8348 8.90871 13.8568C8.82605 13.9504 8.72252 14.1247 8.67082 14.2376C8.65829 14.2651 8.64145 14.2959 8.63266 14.3241L8.63281 14.3242ZM10.1585 14.7634C10.1775 14.856 10.1822 14.8511 10.1822 14.9505C10.1822 15.1825 10.0246 15.4712 9.92492 15.6142C9.96567 15.6139 10.2049 15.4745 10.2494 15.4454C10.3621 15.3713 10.4939 15.2588 10.5754 15.153C10.5944 15.1285 10.6109 15.1062 10.6282 15.08C10.6602 15.032 10.689 14.9792 10.7162 14.92C10.794 14.7506 10.8084 14.6007 10.7997 14.4173C10.785 14.4151 10.7397 14.4541 10.7267 14.4628C10.6999 14.4803 10.6757 14.4956 10.65 14.5119C10.5582 14.5698 10.4291 14.6408 10.3284 14.6868L10.1585 14.7636V14.7634ZM11.2166 12.5553C11.2255 12.6376 11.2785 12.7397 11.326 12.803C11.3347 12.8145 11.3429 12.8239 11.3515 12.8353L11.4106 12.8949C11.4991 12.9642 11.5691 13.0091 11.6917 13.0327C11.716 12.9676 11.7369 12.8467 11.7482 12.7729C11.7638 12.6717 11.7717 12.5815 11.7717 12.4761C11.6715 12.4761 11.5752 12.4852 11.4791 12.4999C11.4343 12.5065 11.3893 12.5149 11.3455 12.5245C11.3023 12.534 11.2572 12.548 11.2165 12.5552L11.2166 12.5553ZM9.2546 14.6884C9.26266 14.705 9.51884 14.9516 9.55916 14.9957C9.57558 14.9839 9.66845 14.8925 9.67493 14.8775L9.37081 14.5734L9.25474 14.6883L9.2546 14.6884ZM9.30831 14.4076L9.84327 14.9417C9.85666 14.9324 9.89021 14.8994 9.89842 14.886L9.36548 14.3506C9.35482 14.3556 9.31364 14.3968 9.30831 14.4076ZM9.21989 14.9796C9.19527 14.9934 8.84089 15.3525 8.80978 15.3835C8.78905 15.4042 8.75895 15.4306 8.74167 15.4522C8.71057 15.4909 8.75391 15.5333 8.78775 15.5127L9.26324 15.0385C9.29089 15.0097 9.26036 14.9573 9.22004 14.9796H9.21989ZM9.73153 15.1865C9.7141 15.193 9.55685 15.3557 9.53079 15.3819C9.50962 15.4029 9.39298 15.5095 9.38895 15.5347C9.38434 15.5632 9.40897 15.586 9.43834 15.5772C9.45836 15.5711 9.70273 15.3194 9.73844 15.2837C9.75039 15.2718 9.77919 15.2484 9.78279 15.2304C9.78927 15.1977 9.76148 15.1751 9.73153 15.1864V15.1865ZM9.01441 14.4684C8.98777 14.4803 8.75564 14.7201 8.71517 14.7606C8.70466 14.7712 8.67385 14.7974 8.67068 14.8144C8.66463 14.8464 8.69386 14.8701 8.72237 14.8579C8.72281 14.8576 9.05977 14.5343 9.06437 14.5117C9.071 14.4798 9.04191 14.4561 9.01426 14.4685L9.01441 14.4684ZM9.04148 14.7983C9.02434 14.8061 8.79956 15.0357 8.75492 15.0807C8.74325 15.0923 8.71604 15.1135 8.71417 15.1344C8.71172 15.1649 8.74081 15.1856 8.76961 15.1714C8.78257 15.1648 9.01196 14.9313 9.05501 14.8883C9.06596 14.8773 9.09389 14.8557 9.09505 14.8352C9.09663 14.8074 9.06898 14.7858 9.04133 14.7983H9.04148ZM9.39975 15.1593C9.37253 15.1728 9.2281 15.3249 9.20722 15.3459C9.17453 15.3785 9.14458 15.4086 9.11189 15.4411C9.09908 15.4538 9.07316 15.4722 9.07345 15.4973C9.07359 15.5253 9.1034 15.5471 9.13162 15.5294L9.41573 15.2451C9.42668 15.2342 9.45447 15.2133 9.45462 15.1917C9.45462 15.1636 9.42639 15.1459 9.39975 15.1593Z" fill="#080817"/>
<path fill-rule="evenodd" clip-rule="evenodd" d="M7.23415 11.6885C7.63332 11.5522 7.54692 11.0724 9.1397 11.0706C9.77244 11.0698 11.0507 11.1495 11.5606 10.9616C12.1574 10.7415 12.609 10.2882 12.7865 9.6559C13.0061 8.87413 12.6702 8.15269 12.2729 7.77253C11.7174 7.24073 11.2811 7.22302 10.3225 7.22302C9.45204 7.22302 8.73218 7.11992 8.08807 7.52067C7.00937 8.19171 7.1872 9.25328 7.1872 10.4131L7.23415 11.6888V11.6885Z" fill="#080817"/>
</svg>
