<svg width="20" height="20" viewBox="0 0 20 20" fill="none" xmlns="http://www.w3.org/2000/svg">
<path fill-rule="evenodd" clip-rule="evenodd" d="M0.245605 19.7323C1.23762 20.0315 3.0405 19.8841 4.129 19.8376C4.25817 8.05878 1.90204 2.62364 15.7903 4.3358L15.8284 18.2573C17.9815 17.3936 19.6318 13.9732 19.712 11.2091C19.8151 7.65658 19.6944 3.97997 19.7164 0.409633C14.5425 0.345841 6.80668 -0.866064 2.8546 2.99818C1.04553 4.76693 0.248629 6.62194 0.252085 9.95425C0.255541 13.2002 0.30479 16.4916 0.245605 19.7323Z" fill="#F5FCCD"/>
<path fill-rule="evenodd" clip-rule="evenodd" d="M7.1846 16.7731C7.44884 16.676 7.56965 15.9952 9.20578 15.9926C9.88532 15.9913 11.3965 16.0673 11.9426 15.9094C13.5818 15.4355 13.9489 13.4147 12.8625 12.3711C12.2341 11.7671 11.7488 11.7496 10.6515 11.7496C9.68833 11.7496 8.87948 11.632 8.15861 12.0908C7.64641 12.4166 7.18128 13.0441 7.18229 13.9249C7.18316 14.8697 7.16674 15.83 7.18474 16.7731H7.1846ZM9.47002 14.3975C9.49983 14.4331 9.8234 14.7516 9.8725 14.8009C9.90793 14.8363 9.89626 14.8295 9.95631 14.8082C10.2782 14.6939 10.4885 14.5824 10.7606 14.3968C11.0627 14.1906 11.3449 13.8637 11.5141 13.5357C11.5557 13.4549 11.6548 13.2379 11.6701 13.1532C11.6613 13.148 11.567 13.1273 11.4807 13.0809C11.4266 13.0515 11.3358 12.982 11.2993 12.935C11.2896 12.9225 11.2808 12.9129 11.2703 12.8992C11.2522 12.876 11.2333 12.8488 11.2172 12.8194C11.1818 12.7556 11.1658 12.7041 11.1443 12.626C11.084 12.6348 10.8992 12.7163 10.8376 12.7441C10.6958 12.808 10.5556 12.898 10.4334 12.9873L10.3136 13.0834C10.2967 13.0989 10.2714 13.1171 10.2557 13.1335C10.236 13.1542 10.2187 13.1662 10.1995 13.1852C10.1906 13.194 10.1827 13.2039 10.1735 13.2131C10.1644 13.2222 10.155 13.2297 10.1455 13.239L10.0434 13.3526C9.9278 13.4853 9.8198 13.6429 9.7334 13.7979C9.65046 13.9466 9.5894 14.0785 9.52604 14.238C9.51049 14.2777 9.47693 14.3589 9.46973 14.3975H9.47002ZM10.7028 13.3061C10.5706 13.3237 10.4589 13.4401 10.4764 13.592C10.4918 13.7245 10.6119 13.8381 10.7631 13.8201C10.8959 13.8044 11.0091 13.6846 10.9907 13.5315C10.975 13.4013 10.8531 13.2858 10.7028 13.3061ZM8.63281 14.3719L8.7745 14.2846C8.91548 14.2035 9.12831 14.1141 9.29751 14.1141C9.38837 14.1141 9.39428 14.1167 9.48442 14.1377C9.49263 14.1287 9.55052 13.9926 9.56189 13.9677C9.58825 13.9102 9.61777 13.8564 9.64542 13.8032C9.67854 13.7396 9.74362 13.6337 9.78481 13.572C9.7946 13.5576 9.83247 13.5082 9.83175 13.4968C9.64311 13.4864 9.50645 13.5011 9.3266 13.5813C9.233 13.6229 9.13796 13.6833 9.06207 13.7486C9.01354 13.7905 8.99871 13.8113 8.9666 13.8402C8.94442 13.8601 8.92815 13.8824 8.90871 13.9045C8.82605 13.9981 8.72252 14.1723 8.67082 14.2852C8.65829 14.3127 8.64145 14.3435 8.63266 14.3717L8.63281 14.3719ZM10.1585 14.8111C10.1775 14.9037 10.1822 14.8988 10.1822 14.9981C10.1822 15.2301 10.0246 15.5188 9.92492 15.6618C9.96567 15.6615 10.2049 15.5222 10.2494 15.4931C10.3621 15.4189 10.4939 15.3064 10.5754 15.2006C10.5944 15.1761 10.6109 15.1538 10.6282 15.1276C10.6602 15.0796 10.689 15.0268 10.7162 14.9676C10.794 14.7983 10.8084 14.6484 10.7997 14.4649C10.785 14.4627 10.7397 14.5018 10.7267 14.5104C10.6999 14.528 10.6757 14.5432 10.65 14.5595C10.5582 14.6174 10.4291 14.6884 10.3284 14.7345L10.1585 14.8112V14.8111ZM11.2166 12.603C11.2255 12.6852 11.2785 12.7873 11.326 12.8507C11.3347 12.8622 11.3429 12.8715 11.3515 12.8829L11.4106 12.9425C11.4991 13.0118 11.5691 13.0567 11.6917 13.0803C11.716 13.0153 11.7369 12.8943 11.7482 12.8206C11.7638 12.7193 11.7717 12.6292 11.7717 12.5238C11.6715 12.5238 11.5752 12.5329 11.4791 12.5475C11.4343 12.5542 11.3893 12.5625 11.3455 12.5722C11.3023 12.5817 11.2572 12.5956 11.2165 12.6028L11.2166 12.603ZM9.2546 14.7361C9.26266 14.7526 9.51884 14.9993 9.55916 15.0433C9.57558 15.0315 9.66845 14.9401 9.67493 14.9251L9.37081 14.621L9.25474 14.7359L9.2546 14.7361ZM9.30831 14.4553L9.84327 14.9893C9.85666 14.98 9.89021 14.947 9.89842 14.9336L9.36548 14.3982C9.35482 14.4033 9.31364 14.4445 9.30831 14.4553ZM9.21989 15.0272C9.19527 15.041 8.84089 15.4002 8.80978 15.4311C8.78905 15.4519 8.75895 15.4782 8.74167 15.4998C8.71057 15.5386 8.75391 15.5809 8.78775 15.5603L9.26324 15.0861C9.29089 15.0573 9.26036 15.0049 9.22004 15.0272H9.21989ZM9.73153 15.2341C9.7141 15.2406 9.55685 15.4034 9.53079 15.4296C9.50962 15.4506 9.39298 15.5571 9.38895 15.5823C9.38434 15.6109 9.40897 15.6336 9.43834 15.6248C9.45836 15.6188 9.70273 15.3671 9.73844 15.3314C9.75039 15.3194 9.77919 15.2961 9.78279 15.2781C9.78927 15.2454 9.76148 15.2228 9.73153 15.234V15.2341ZM9.01441 14.516C8.98777 14.528 8.75564 14.7677 8.71517 14.8082C8.70466 14.8189 8.67385 14.8451 8.67068 14.8621C8.66463 14.894 8.69386 14.9178 8.72237 14.9055C8.72281 14.9053 9.05977 14.582 9.06437 14.5594C9.071 14.5274 9.04191 14.5038 9.01426 14.5162L9.01441 14.516ZM9.04148 14.8459C9.02434 14.8537 8.79956 15.0834 8.75492 15.1283C8.74325 15.14 8.71604 15.1611 8.71417 15.182C8.71172 15.2125 8.74081 15.2333 8.76961 15.219C8.78257 15.2124 9.01196 14.979 9.05501 14.9359C9.06596 14.925 9.09389 14.9034 9.09505 14.8828C9.09663 14.855 9.06898 14.8334 9.04133 14.8459H9.04148ZM9.39975 15.2069C9.37253 15.2205 9.2281 15.3725 9.20722 15.3936C9.17453 15.4261 9.14458 15.4562 9.11189 15.4887C9.09908 15.5014 9.07316 15.5198 9.07345 15.5449C9.07359 15.573 9.1034 15.5947 9.13162 15.577L9.41573 15.2928C9.42668 15.2818 9.45447 15.2609 9.45462 15.2393C9.45462 15.2113 9.42639 15.1935 9.39975 15.2069Z" fill="#F5FCCD"/>
<path fill-rule="evenodd" clip-rule="evenodd" d="M7.23415 11.7361C7.63332 11.5999 7.54692 11.1201 9.1397 11.1182C9.77244 11.1175 11.0507 11.1971 11.5606 11.0092C12.1574 10.7892 12.609 10.3358 12.7865 9.70354C13.0061 8.92177 12.6702 8.20032 12.2729 7.82016C11.7174 7.28837 11.2811 7.27066 10.3225 7.27066C9.45204 7.27066 8.73218 7.16756 8.08807 7.56831C7.00937 8.23935 7.1872 9.30092 7.1872 10.4607L7.23415 11.7364V11.7361Z" fill="#F5FCCD"/>
</svg>
