<svg width="56" height="57" viewBox="0 0 56 57" fill="none" xmlns="http://www.w3.org/2000/svg">
<circle cx="28" cy="28.0953" r="28" fill="#F0F0FA"/>
<path d="M35.4999 42.262C30.9333 44.7645 27.1666 44.762 22.1666 43.0953C17.1033 41.407 13.8333 35.5953 13.8333 31.4286C13.8333 29.142 17.2616 27.7853 18.4408 27.387C18.5544 27.3493 18.6534 27.277 18.7239 27.1801C18.7943 27.0832 18.8325 26.9667 18.8333 26.847V20.5953C18.8333 20.2123 18.9087 19.833 19.0553 19.4791C19.2018 19.1253 19.4167 18.8037 19.6875 18.5329C19.9584 18.2621 20.2799 18.0472 20.6338 17.9006C20.9876 17.7541 21.3669 17.6786 21.7499 17.6786C22.1329 17.6786 22.5122 17.7541 22.8661 17.9006C23.2199 18.0472 23.5415 18.2621 23.8123 18.5329C24.0832 18.8037 24.298 19.1253 24.4446 19.4791C24.5911 19.833 24.6666 20.2123 24.6666 20.5953V18.512C24.6666 17.7384 24.9739 16.9965 25.5209 16.4496C26.0678 15.9026 26.8097 15.5953 27.5833 15.5953C28.3568 15.5953 29.0987 15.9026 29.6456 16.4496C30.1926 16.9965 30.4999 17.7384 30.4999 18.512V20.5953C30.4999 19.8217 30.8072 19.0799 31.3542 18.5329C31.9012 17.9859 32.643 17.6786 33.4166 17.6786C34.1901 17.6786 34.932 17.9859 35.479 18.5329C36.026 19.0799 36.3333 19.8217 36.3333 20.5953V14.3453C36.3333 13.5717 36.6405 12.8299 37.1875 12.2829C37.7345 11.7359 38.4764 11.4286 39.2499 11.4286C40.0235 11.4286 40.7653 11.7359 41.3123 12.2829C41.8593 12.8299 42.1666 13.5717 42.1666 14.3453V31.622C42.1666 33.682 41.6733 35.7286 40.4683 37.4003C39.2433 39.0995 37.4641 41.1853 35.4999 42.262Z" fill="#080817" stroke="#080817" stroke-width="2" stroke-linecap="round" stroke-linejoin="round"/>
</svg>
