<svg width="56" height="57" viewBox="0 0 56 57" fill="none" xmlns="http://www.w3.org/2000/svg">
<circle cx="28" cy="28.0953" r="28" fill="#F0F0FA"/>
<g clip-path="url(#clip0_226_254)">
<path fill-rule="evenodd" clip-rule="evenodd" d="M35.6021 12.7353C35.7215 12.5435 35.8951 12.3914 36.101 12.2982C36.3068 12.205 36.5357 12.175 36.7586 12.2118L42.6352 13.1924C42.934 13.2423 43.2008 13.4087 43.3769 13.6551C43.5531 13.9016 43.6242 14.2079 43.5746 14.5067L42.5964 20.3856C42.559 20.6084 42.4565 20.8152 42.3016 20.9798C42.1468 21.1444 41.9467 21.2594 41.7265 21.3102C41.5064 21.3611 41.2761 21.3456 41.0648 21.2656C40.8534 21.1857 40.6705 21.0449 40.5392 20.861L38.9529 18.6438L30.7838 23.8644C30.4354 24.0873 30.0182 24.1768 29.6091 24.1163C29.1999 24.0558 28.8265 23.8495 28.5575 23.5353L24.0021 18.2096L15.4832 22.5867C15.0789 22.7946 14.6085 22.8334 14.1755 22.6945C13.7426 22.5557 13.3826 22.2505 13.1746 21.8461C12.9667 21.4418 12.9279 20.9714 13.0668 20.5385C13.2057 20.1055 13.5109 19.7455 13.9152 19.5376L23.6409 14.5387C23.9843 14.3623 24.3771 14.307 24.7559 14.3816C25.1346 14.4563 25.4771 14.6566 25.7278 14.9501L30.1941 20.173L36.9598 15.8484L35.6409 14.0038C35.5098 13.8199 35.4361 13.6012 35.4292 13.3754C35.4223 13.1497 35.4825 12.9269 35.6021 12.7353ZM20.6398 23.9581L14.0066 27.7524C13.7446 27.9021 13.5267 28.1183 13.375 28.3792C13.2233 28.64 13.1431 28.9363 13.1426 29.2381V42.381C13.1426 43.3273 13.9106 44.0953 14.8569 44.0953H20.6398V23.9581ZM23.4969 44.0953H31.8809V28.525L28.1118 30.4084L24.3449 23.8164C24.1547 23.4812 23.8566 23.2202 23.4992 23.0758L23.4969 44.0953ZM41.1426 44.0953H34.7381V27.0964L40.3769 24.2758C40.6383 24.1454 40.9286 24.0838 41.2205 24.0971C41.5123 24.1104 41.7959 24.198 42.0443 24.3516C42.2928 24.5053 42.4978 24.7198 42.64 24.975C42.7823 25.2302 42.8569 25.5174 42.8569 25.8096V42.381C42.8569 42.8356 42.6763 43.2717 42.3548 43.5932C42.0333 43.9147 41.5973 44.0953 41.1426 44.0953Z" fill="#080817"/>
</g>
<defs>
<clipPath id="clip0_226_254">
<rect width="32" height="32" fill="white" transform="translate(12 12.0953)"/>
</clipPath>
</defs>
</svg>
