<svg width="1040" height="665" viewBox="0 0 1040 665" fill="none" xmlns="http://www.w3.org/2000/svg">
<g clip-path="url(#clip0_319_198)">
<path d="M49.5238 6.04539e-06H0V49.5238M49.5238 6.04539e-06V49.5238M49.5238 6.04539e-06L99.0476 0M49.5238 49.5238H0M49.5238 49.5238L99.0476 49.5238M49.5238 49.5238V99.0477M0 49.5238V99.0477M99.0476 0V49.5238M99.0476 0H148.571M99.0476 49.5238H148.571M99.0476 49.5238V99.0477M148.571 0V49.5238M148.571 0H198.095M148.571 49.5238H198.095M148.571 49.5238V99.0477M198.095 0V49.5238M198.095 0H247.619M198.095 49.5238H247.619M198.095 49.5238V99.0477M247.619 0V49.5238M247.619 0H297.143M247.619 49.5238H297.143M247.619 49.5238V99.0477M297.143 0V49.5238M297.143 0H346.667M297.143 49.5238H346.667M297.143 49.5238V99.0477M346.667 0V49.5238M346.667 0H396.19M346.667 49.5238H396.19M346.667 49.5238V99.0477M396.19 0V49.5238M396.19 0H445.714M396.19 49.5238H445.714M396.19 49.5238V99.0477M445.714 0V49.5238M445.714 0H495.238M445.714 49.5238H495.238M445.714 49.5238V99.0477M495.238 0V49.5238M495.238 0H544.762M495.238 49.5238H544.762M495.238 49.5238V99.0477M544.762 0V49.5238M544.762 0H594.286M544.762 49.5238H594.286M544.762 49.5238V99.0477M594.286 0V49.5238M594.286 0H643.809M594.286 49.5238H643.809M594.286 49.5238V99.0477M643.809 0V49.5238M643.809 0H693.333M643.809 49.5238H693.333M643.809 49.5238V99.0477M693.333 0V49.5238M693.333 0H742.857M693.333 49.5238H742.857M693.333 49.5238V99.0477M742.857 0V49.5238M742.857 0H792.381M742.857 49.5238H792.381M742.857 49.5238V99.0477M792.381 0V49.5238M792.381 0H841.905M792.381 49.5238H841.905M792.381 49.5238V99.0477M841.905 0V49.5238M841.905 0H891.429M841.905 49.5238H891.429M841.905 49.5238V99.0477M891.429 0V49.5238M891.429 0H940.952M891.429 49.5238H940.952M891.429 49.5238V99.0477M940.952 0V49.5238M940.952 0H990.476M940.952 49.5238H990.476M940.952 49.5238V99.0477M990.476 0V49.5238M990.476 0H1040V49.5238M990.476 49.5238H1040M990.476 49.5238V99.0477M1040 49.5238V99.0477M49.5238 99.0477H0M49.5238 99.0477L99.0476 99.0477M49.5238 99.0477V148.572M0 99.0477V148.572M99.0476 99.0477H148.571M99.0476 99.0477V148.572M148.571 99.0477H198.095M148.571 99.0477V148.572M198.095 99.0477H247.619M198.095 99.0477V148.572M247.619 99.0477H297.143M247.619 99.0477V148.572M297.143 99.0477H346.667M297.143 99.0477V148.572M346.667 99.0477H396.19M346.667 99.0477V148.572M396.19 99.0477H445.714M396.19 99.0477V148.572M445.714 99.0477H495.238M445.714 99.0477V148.572M495.238 99.0477H544.762M495.238 99.0477V148.572M544.762 99.0477H594.286M544.762 99.0477V148.572M594.286 99.0477H643.809M594.286 99.0477V148.572M643.809 99.0477H693.333M643.809 99.0477V148.572M693.333 99.0477H742.857M693.333 99.0477V148.572M742.857 99.0477H792.381M742.857 99.0477V148.572M792.381 99.0477H841.905M792.381 99.0477V148.572M841.905 99.0477H891.429M841.905 99.0477V148.572M891.429 99.0477H940.952M891.429 99.0477V148.572M940.952 99.0477H990.476M940.952 99.0477V148.572M990.476 99.0477H1040M990.476 99.0477V148.572M1040 99.0477V148.572M49.5238 148.572H0M49.5238 148.572H99.0476M49.5238 148.572V198.096M0 148.572V198.096M99.0476 148.572H148.571M99.0476 148.572V198.096M148.571 148.572H198.095M148.571 148.572V198.096M198.095 148.572H247.619M198.095 148.572V198.096M247.619 148.572H297.143M247.619 148.572V198.096M297.143 148.572H346.667M297.143 148.572V198.096M346.667 148.572H396.19M346.667 148.572V198.096M396.19 148.572H445.714M396.19 148.572V198.096M445.714 148.572H495.238M445.714 148.572V198.096M495.238 148.572H544.762M495.238 148.572V198.096M544.762 148.572H594.286M544.762 148.572V198.096M594.286 148.572H643.809M594.286 148.572V198.096M643.809 148.572H693.333M643.809 148.572V198.096M693.333 148.572H742.857M693.333 148.572V198.096M742.857 148.572H792.381M742.857 148.572V198.096M792.381 148.572H841.905M792.381 148.572V198.096M841.905 148.572H891.429M841.905 148.572V198.096M891.429 148.572H940.952M891.429 148.572V198.096M940.952 148.572H990.476M940.952 148.572V198.096M990.476 148.572H1040M990.476 148.572V198.096M1040 148.572V198.096M49.5238 198.096H0M49.5238 198.096L99.0476 198.096M49.5238 198.096V247.619M0 198.096V247.619M99.0476 198.096H148.571M99.0476 198.096V247.619M148.571 198.096H198.095M148.571 198.096V247.619M198.095 198.096H247.619M198.095 198.096V247.619M247.619 198.096H297.143M247.619 198.096V247.619M297.143 198.096H346.667M297.143 198.096V247.619M346.667 198.096H396.19M346.667 198.096V247.619M396.19 198.096H445.714M396.19 198.096V247.619M445.714 198.096H495.238M445.714 198.096V247.619M495.238 198.096H544.762M495.238 198.096V247.619M544.762 198.096H594.286M544.762 198.096V247.619M594.286 198.096H643.809M594.286 198.096V247.619M643.809 198.096H693.333M643.809 198.096V247.619M693.333 198.096H742.857M693.333 198.096V247.619M742.857 198.096H792.381M742.857 198.096L742.857 247.619M792.381 198.096H841.905M792.381 198.096L792.381 247.619M841.905 198.096H891.429M841.905 198.096L841.905 247.619M891.429 198.096H940.952M891.429 198.096L891.428 247.619M940.952 198.096H990.476M940.952 198.096L940.952 247.619M990.476 198.096H1040M990.476 198.096L990.476 247.619M1040 198.096L1040 247.619M49.5238 247.619H0M49.5238 247.619L99.0476 247.619M49.5238 247.619V297.143M0 247.619V297.143M99.0476 247.619H148.571M99.0476 247.619V297.143M148.571 247.619H198.095M148.571 247.619V297.143M198.095 247.619L247.619 247.619M198.095 247.619V297.143M247.619 247.619H297.143M247.619 247.619V297.143M297.143 247.619H346.667M297.143 247.619V297.143M346.667 247.619H396.19M346.667 247.619V297.143M396.19 247.619H445.714M396.19 247.619V297.143M445.714 247.619H495.238M445.714 247.619V297.143M495.238 247.619H544.762M495.238 247.619V297.143M544.762 247.619H594.286M544.762 247.619V297.143M594.286 247.619H643.809M594.286 247.619V297.143M643.809 247.619H693.333M643.809 247.619V297.143M693.333 247.619H742.857M693.333 247.619V297.143M742.857 247.619H792.381M742.857 247.619L742.857 297.143M792.381 247.619H841.905M792.381 247.619L792.381 297.143M841.905 247.619H891.428M841.905 247.619L841.905 297.143M891.428 247.619H940.952M891.428 247.619L891.429 297.143M940.952 247.619H990.476M940.952 247.619L940.952 297.143M990.476 247.619H1040M990.476 247.619L990.476 297.143M1040 247.619L1040 297.143M49.5238 297.143H0M49.5238 297.143H99.0476M49.5238 297.143V346.667M0 297.143V346.667M99.0476 297.143H148.571M99.0476 297.143V346.667M148.571 297.143H198.095M148.571 297.143V346.667M198.095 297.143H247.619M198.095 297.143V346.667M247.619 297.143H297.143M247.619 297.143V346.667M297.143 297.143H346.667M297.143 297.143V346.667M346.667 297.143H396.19M346.667 297.143V346.667M396.19 297.143H445.714M396.19 297.143V346.667M445.714 297.143H495.238M445.714 297.143V346.667M495.238 297.143H544.762M495.238 297.143V346.667M544.762 297.143H594.286M544.762 297.143V346.667M594.286 297.143H643.809M594.286 297.143V346.667M643.809 297.143H693.333M643.809 297.143V346.667M693.333 297.143H742.857M693.333 297.143V346.667M742.857 297.143H792.381M742.857 297.143V346.667M792.381 297.143H841.905M792.381 297.143V346.667M841.905 297.143H891.429M841.905 297.143V346.667M891.429 297.143H940.952M891.429 297.143V346.667M940.952 297.143H990.476M940.952 297.143V346.667M990.476 297.143H1040M990.476 297.143V346.667M1040 297.143V346.667M49.5238 346.667H0M49.5238 346.667H99.0476M49.5238 346.667V396.191M0 346.667V396.191M99.0476 346.667H148.571M99.0476 346.667V396.191M148.571 346.667H198.095M148.571 346.667V396.191M198.095 346.667H247.619M198.095 346.667V396.191M247.619 346.667H297.143M247.619 346.667V396.191M297.143 346.667H346.667M297.143 346.667V396.191M346.667 346.667H396.19M346.667 346.667V396.191M396.19 346.667H445.714M396.19 346.667V396.191M445.714 346.667H495.238M445.714 346.667V396.191M495.238 346.667H544.762M495.238 346.667V396.191M544.762 346.667H594.286M544.762 346.667V396.191M594.286 346.667H643.809M594.286 346.667V396.191M643.809 346.667H693.333M643.809 346.667V396.191M693.333 346.667H742.857M693.333 346.667V396.191M742.857 346.667H792.381M742.857 346.667L742.857 396.191M792.381 346.667H841.905M792.381 346.667L792.381 396.191M841.905 346.667H891.429M841.905 346.667L841.905 396.191M891.429 346.667H940.952M891.429 346.667L891.428 396.191M940.952 346.667H990.476M940.952 346.667L940.952 396.191M990.476 346.667H1040M990.476 346.667L990.476 396.191M1040 346.667L1040 396.191M49.5238 396.191H0M49.5238 396.191L99.0476 396.191M49.5238 396.191V445.715M0 396.191V445.715M99.0476 396.191H148.571M99.0476 396.191V445.715M148.571 396.191H198.095M148.571 396.191V445.715M198.095 396.191H247.619M198.095 396.191V445.715M247.619 396.191L297.143 396.191M247.619 396.191V445.715M297.143 396.191H346.667M297.143 396.191V445.715M346.667 396.191H396.19M346.667 396.191V445.715M396.19 396.191H445.714M396.19 396.191V445.715M445.714 396.191H495.238M445.714 396.191V445.715M495.238 396.191H544.762M495.238 396.191V445.715M544.762 396.191H594.286M544.762 396.191V445.715M594.286 396.191H643.809M594.286 396.191V445.715M643.809 396.191H693.333M643.809 396.191V445.715M693.333 396.191H742.857M693.333 396.191V445.715M742.857 396.191H792.381M742.857 396.191L742.857 445.715M792.381 396.191H841.905M792.381 396.191L792.381 445.715M841.905 396.191H891.428M841.905 396.191L841.905 445.715M891.428 396.191H940.952M891.428 396.191L891.429 445.715M940.952 396.191H990.476M940.952 396.191L940.952 445.715M990.476 396.191H1040M990.476 396.191L990.476 445.715M1040 396.191L1040 445.715M49.5238 445.715H0M49.5238 445.715L99.0476 445.715M49.5238 445.715V495.239M0 445.715V495.239M99.0476 445.715H148.571M99.0476 445.715V495.239M148.571 445.715H198.095M148.571 445.715V495.239M198.095 445.715H247.619M198.095 445.715V495.239M247.619 445.715H297.143M247.619 445.715V495.239M297.143 445.715H346.667M297.143 445.715V495.239M346.667 445.715H396.19M346.667 445.715V495.239M396.19 445.715H445.714M396.19 445.715V495.239M445.714 445.715H495.238M445.714 445.715V495.239M495.238 445.715H544.762M495.238 445.715V495.239M544.762 445.715H594.286M544.762 445.715V495.239M594.286 445.715H643.809M594.286 445.715V495.239M643.809 445.715H693.333M643.809 445.715V495.239M693.333 445.715H742.857M693.333 445.715V495.239M742.857 445.715H792.381M742.857 445.715V495.239M792.381 445.715H841.905M792.381 445.715V495.239M841.905 445.715H891.429M841.905 445.715V495.239M891.429 445.715H940.952M891.429 445.715V495.239M940.952 445.715H990.476M940.952 445.715V495.239M990.476 445.715H1040M990.476 445.715V495.239M1040 445.715V495.239M49.5238 495.239H0M49.5238 495.239L99.0476 495.239M49.5238 495.239V544.763M0 495.239V544.763M99.0476 495.239H148.571M99.0476 495.239V544.763M148.571 495.239H198.095M148.571 495.239V544.763M198.095 495.239H247.619M198.095 495.239V544.763M247.619 495.239H297.143M247.619 495.239V544.763M297.143 495.239H346.667M297.143 495.239V544.763M346.667 495.239H396.19M346.667 495.239V544.763M396.19 495.239H445.714M396.19 495.239V544.763M445.714 495.239H495.238M445.714 495.239V544.763M495.238 495.239H544.762M495.238 495.239V544.763M544.762 495.239H594.286M544.762 495.239V544.763M594.286 495.239H643.809M594.286 495.239V544.763M643.809 495.239H693.333M643.809 495.239V544.763M693.333 495.239H742.857M693.333 495.239V544.763M742.857 495.239H792.381M742.857 495.239V544.763M792.381 495.239H841.905M792.381 495.239V544.763M841.905 495.239H891.429M841.905 495.239V544.763M891.429 495.239H940.952M891.429 495.239V544.763M940.952 495.239H990.476M940.952 495.239V544.763M990.476 495.239H1040M990.476 495.239V544.763M1040 495.239V544.763M49.5238 544.763H0M49.5238 544.763H99.0476M49.5238 544.763V594.285M0 544.763V594.285M99.0476 544.763H148.571M99.0476 544.763V594.285M148.571 544.763H198.095M148.571 544.763V594.285M198.095 544.763H247.619M198.095 544.763V594.285M247.619 544.763H297.143M247.619 544.763V594.285M297.143 544.763H346.667M297.143 544.763V594.285M346.667 544.763H396.19M346.667 544.763V594.285M396.19 544.763H445.714M396.19 544.763V594.285M445.714 544.763H495.238M445.714 544.763V594.285M495.238 544.763H544.762M495.238 544.763V594.285M544.762 544.763H594.286M544.762 544.763V594.285M594.286 544.763H643.809M594.286 544.763V594.285M643.809 544.763H693.333M643.809 544.763V594.285M693.333 544.763H742.857M693.333 544.763V594.285M742.857 544.763H792.381M742.857 544.763V594.285M792.381 544.763H841.905M792.381 544.763V594.285M841.905 544.763H891.429M841.905 544.763V594.285M891.429 544.763H940.952M891.429 544.763V594.285M940.952 544.763H990.476M940.952 544.763V594.285M990.476 544.763H1040M990.476 544.763V594.285M1040 544.763V594.285M49.5238 594.285H0M49.5238 594.285H99.0476M49.5238 594.285V643.809M0 594.285V643.809H49.5238M99.0476 594.285H148.571M99.0476 594.285V643.809M148.571 594.285H198.095M148.571 594.285V643.809M198.095 594.285H247.619M198.095 594.285V643.809M247.619 594.285H297.143M247.619 594.285V643.809M297.143 594.285H346.667M297.143 594.285V643.809M346.667 594.285H396.19M346.667 594.285V643.809M396.19 594.285H445.714M396.19 594.285V643.809M445.714 594.285H495.238M445.714 594.285V643.809M495.238 594.285H544.762M495.238 594.285V643.809M544.762 594.285H594.286M544.762 594.285V643.809M594.286 594.285H643.809M594.286 594.285V643.809M643.809 594.285H693.333M643.809 594.285V643.809M693.333 594.285H742.857M693.333 594.285V643.809M742.857 594.285H792.381M742.857 594.285V643.809M792.381 594.285H841.905M792.381 594.285V643.809M841.905 594.285H891.429M841.905 594.285V643.809M891.429 594.285H940.952M891.429 594.285V643.809M940.952 594.285H990.476M940.952 594.285V643.809M990.476 594.285H1040M990.476 594.285V643.809M1040 594.285V643.809H990.476M49.5238 643.809L99.0476 643.809M99.0476 643.809H148.571M148.571 643.809H198.095M198.095 643.809H247.619M247.619 643.809H297.143M297.143 643.809H346.667M346.667 643.809H396.19M396.19 643.809H445.714M445.714 643.809H495.238M495.238 643.809H544.762M544.762 643.809H594.286M594.286 643.809H643.809M643.809 643.809H693.333M693.333 643.809H742.857M742.857 643.809H792.381M792.381 643.809H841.905M841.905 643.809H891.429M891.429 643.809H940.952M940.952 643.809H990.476" stroke="white" stroke-opacity="0.16" stroke-width="0.238095"/>
<g filter="url(#filter0_f_319_198)">
<rect x="25" y="483" width="300" height="991" transform="rotate(-90 25 483)" fill="url(#paint0_radial_319_198)"/>
</g>
</g>
<defs>
<filter id="filter0_f_319_198" x="-46.4286" y="111.571" width="1133.86" height="442.857" filterUnits="userSpaceOnUse" color-interpolation-filters="sRGB">
<feFlood flood-opacity="0" result="BackgroundImageFix"/>
<feBlend mode="normal" in="SourceGraphic" in2="BackgroundImageFix" result="shape"/>
<feGaussianBlur stdDeviation="35.7143" result="effect1_foregroundBlur_319_198"/>
</filter>
<radialGradient id="paint0_radial_319_198" cx="0" cy="0" r="1" gradientUnits="userSpaceOnUse" gradientTransform="translate(175 978.5) rotate(90) scale(495.5 150)">
<stop offset="0.015625" stop-color="#080817" stop-opacity="0.69"/>
<stop offset="0.223958" stop-color="#080817" stop-opacity="0.34"/>
<stop offset="0.911458" stop-color="#4D76F4" stop-opacity="0"/>
</radialGradient>
<clipPath id="clip0_319_198">
<rect width="1040" height="665" fill="white"/>
</clipPath>
</defs>
</svg>
