<svg width="56" height="57" viewBox="0 0 56 57" fill="none" xmlns="http://www.w3.org/2000/svg">
<circle cx="28" cy="28.0953" r="28" fill="#F0F0FA"/>
<path d="M16.125 14.3453C14.6332 14.3453 13.2024 14.9379 12.1475 15.9928C11.0926 17.0477 10.5 18.4784 10.5 19.9703V21.8453H45.5V19.9703C45.5 18.4784 44.9074 17.0477 43.8525 15.9928C42.7976 14.9379 41.3668 14.3453 39.875 14.3453H16.125ZM10.5 36.2203V24.3453H45.5V36.2203C45.5 37.7121 44.9074 39.1429 43.8525 40.1978C42.7976 41.2526 41.3668 41.8453 39.875 41.8453H16.125C14.6332 41.8453 13.2024 41.2526 12.1475 40.1978C11.0926 39.1429 10.5 37.7121 10.5 36.2203ZM34.25 31.8453C33.9185 31.8453 33.6005 31.977 33.3661 32.2114C33.1317 32.4458 33 32.7638 33 33.0953C33 33.4268 33.1317 33.7447 33.3661 33.9792C33.6005 34.2136 33.9185 34.3453 34.25 34.3453H38C38.3315 34.3453 38.6495 34.2136 38.8839 33.9792C39.1183 33.7447 39.25 33.4268 39.25 33.0953C39.25 32.7638 39.1183 32.4458 38.8839 32.2114C38.6495 31.977 38.3315 31.8453 38 31.8453H34.25Z" fill="#080817"/>
</svg>
