<svg width="69" height="47" viewBox="0 0 69 47" fill="none" xmlns="http://www.w3.org/2000/svg">
<path fill-rule="evenodd" clip-rule="evenodd" d="M13.2277 10.7866C14.3112 10.5248 15.4187 10.3929 16.5296 10.3936C25.3271 10.3936 32.4568 18.5416 32.4568 28.5886C32.4568 38.6386 25.3271 46.7866 16.5296 46.7866C7.73211 46.7866 0.599609 38.6416 0.599609 28.5886C0.599609 28.2946 0.605234 27.9976 0.619297 27.7036H0.599609C0.599609 12.5386 11.3996 0.199585 24.6746 0.199585V6.30758C20.3687 6.30758 16.3974 7.98158 13.2277 10.7866ZM48.8734 10.7866C49.9365 10.5286 51.039 10.3936 52.1696 10.3936C60.9671 10.3936 68.0996 18.5416 68.0996 28.5886C68.0996 38.6386 60.9671 46.7866 52.1696 46.7866C43.3721 46.7866 36.2424 38.6416 36.2424 28.5886C36.2424 28.2946 36.248 27.9976 36.2621 27.7036H36.2424C36.2424 12.5386 47.0424 0.199585 60.3174 0.199585V6.30758C56.0087 6.30758 52.043 7.98158 48.8734 10.7866Z" fill="#A6C00C"/>
</svg>
